<mxfile host="app.diagrams.net" modified="2022-11-04T19:50:42.663Z" agent="5.0 (Macintosh; Intel Mac OS X 10_15_7) AppleWebKit/537.36 (KHTML, like Gecko) Chrome/107.0.0.0 Safari/537.36" etag="7ngu3d2NnsLTqQXYcsL4" version="20.5.1" type="github">
  <diagram id="Qy7682RELUKG2msuOTHz" name="Page-1">
    <mxGraphModel dx="893" dy="503" grid="1" gridSize="10" guides="1" tooltips="1" connect="1" arrows="1" fold="1" page="1" pageScale="1" pageWidth="827" pageHeight="1169" math="0" shadow="0">
      <root>
        <mxCell id="0" />
        <mxCell id="1" parent="0" />
        <mxCell id="J3wNMaAdLXpvXrncayiv-27" value="" style="rounded=0;whiteSpace=wrap;html=1;" vertex="1" parent="1">
          <mxGeometry x="70" y="190" width="650" height="360" as="geometry" />
        </mxCell>
        <mxCell id="J3wNMaAdLXpvXrncayiv-1" value="" style="rounded=0;whiteSpace=wrap;html=1;" vertex="1" parent="1">
          <mxGeometry x="335" y="270" width="310" height="240" as="geometry" />
        </mxCell>
        <mxCell id="J3wNMaAdLXpvXrncayiv-2" value="ReplicaSet" style="text;html=1;resizable=0;autosize=1;align=center;verticalAlign=middle;points=[];fillColor=none;strokeColor=none;rounded=0;" vertex="1" parent="1">
          <mxGeometry x="355" y="285" width="80" height="30" as="geometry" />
        </mxCell>
        <mxCell id="J3wNMaAdLXpvXrncayiv-3" value="" style="rounded=0;whiteSpace=wrap;html=1;" vertex="1" parent="1">
          <mxGeometry x="445" y="330" width="100" height="30" as="geometry" />
        </mxCell>
        <mxCell id="J3wNMaAdLXpvXrncayiv-5" value="ConfigMap" style="text;html=1;resizable=0;autosize=1;align=center;verticalAlign=middle;points=[];fillColor=none;strokeColor=none;rounded=0;" vertex="1" parent="1">
          <mxGeometry x="455" y="330" width="80" height="30" as="geometry" />
        </mxCell>
        <mxCell id="J3wNMaAdLXpvXrncayiv-6" value="" style="rounded=0;whiteSpace=wrap;html=1;" vertex="1" parent="1">
          <mxGeometry x="355" y="410" width="120" height="60" as="geometry" />
        </mxCell>
        <mxCell id="J3wNMaAdLXpvXrncayiv-7" value="" style="shape=image;html=1;verticalAlign=top;verticalLabelPosition=bottom;labelBackgroundColor=#ffffff;imageAspect=0;aspect=fixed;image=https://cdn0.iconfinder.com/data/icons/social-media-2104/24/social_media_social_media_logo_docker-128.png" vertex="1" parent="1">
          <mxGeometry x="415" y="420" width="40" height="40" as="geometry" />
        </mxCell>
        <mxCell id="J3wNMaAdLXpvXrncayiv-8" value="Pod 1" style="text;html=1;resizable=0;autosize=1;align=center;verticalAlign=middle;points=[];fillColor=none;strokeColor=none;rounded=0;" vertex="1" parent="1">
          <mxGeometry x="355" y="410" width="50" height="30" as="geometry" />
        </mxCell>
        <mxCell id="J3wNMaAdLXpvXrncayiv-9" value="" style="rounded=0;whiteSpace=wrap;html=1;" vertex="1" parent="1">
          <mxGeometry x="505" y="410" width="120" height="60" as="geometry" />
        </mxCell>
        <mxCell id="J3wNMaAdLXpvXrncayiv-10" value="" style="shape=image;html=1;verticalAlign=top;verticalLabelPosition=bottom;labelBackgroundColor=#ffffff;imageAspect=0;aspect=fixed;image=https://cdn0.iconfinder.com/data/icons/social-media-2104/24/social_media_social_media_logo_docker-128.png" vertex="1" parent="1">
          <mxGeometry x="535" y="420" width="40" height="40" as="geometry" />
        </mxCell>
        <mxCell id="J3wNMaAdLXpvXrncayiv-11" value="Pod 2" style="text;html=1;resizable=0;autosize=1;align=center;verticalAlign=middle;points=[];fillColor=none;strokeColor=none;rounded=0;" vertex="1" parent="1">
          <mxGeometry x="575" y="410" width="50" height="30" as="geometry" />
        </mxCell>
        <mxCell id="J3wNMaAdLXpvXrncayiv-13" style="edgeStyle=orthogonalEdgeStyle;rounded=0;orthogonalLoop=1;jettySize=auto;html=1;entryX=0.5;entryY=0;entryDx=0;entryDy=0;" edge="1" parent="1" source="J3wNMaAdLXpvXrncayiv-5" target="J3wNMaAdLXpvXrncayiv-7">
          <mxGeometry relative="1" as="geometry" />
        </mxCell>
        <mxCell id="J3wNMaAdLXpvXrncayiv-14" style="edgeStyle=orthogonalEdgeStyle;rounded=0;orthogonalLoop=1;jettySize=auto;html=1;entryX=0.5;entryY=0;entryDx=0;entryDy=0;" edge="1" parent="1" source="J3wNMaAdLXpvXrncayiv-5" target="J3wNMaAdLXpvXrncayiv-10">
          <mxGeometry relative="1" as="geometry">
            <Array as="points">
              <mxPoint x="495" y="390" />
              <mxPoint x="555" y="390" />
            </Array>
          </mxGeometry>
        </mxCell>
        <mxCell id="J3wNMaAdLXpvXrncayiv-24" style="edgeStyle=orthogonalEdgeStyle;rounded=0;orthogonalLoop=1;jettySize=auto;html=1;exitX=0.5;exitY=1;exitDx=0;exitDy=0;entryX=0.605;entryY=1.009;entryDx=0;entryDy=0;entryPerimeter=0;" edge="1" parent="1" source="J3wNMaAdLXpvXrncayiv-16" target="J3wNMaAdLXpvXrncayiv-6">
          <mxGeometry relative="1" as="geometry" />
        </mxCell>
        <mxCell id="J3wNMaAdLXpvXrncayiv-25" style="edgeStyle=orthogonalEdgeStyle;rounded=0;orthogonalLoop=1;jettySize=auto;html=1;exitX=0.5;exitY=1;exitDx=0;exitDy=0;entryX=0.5;entryY=1;entryDx=0;entryDy=0;" edge="1" parent="1" source="J3wNMaAdLXpvXrncayiv-16" target="J3wNMaAdLXpvXrncayiv-9">
          <mxGeometry relative="1" as="geometry" />
        </mxCell>
        <mxCell id="J3wNMaAdLXpvXrncayiv-16" value="" style="ellipse;whiteSpace=wrap;html=1;" vertex="1" parent="1">
          <mxGeometry x="165" y="410" width="100" height="45" as="geometry" />
        </mxCell>
        <mxCell id="J3wNMaAdLXpvXrncayiv-17" value="Service&lt;br&gt;" style="text;html=1;resizable=0;autosize=1;align=center;verticalAlign=middle;points=[];fillColor=none;strokeColor=none;rounded=0;" vertex="1" parent="1">
          <mxGeometry x="185" y="417.5" width="60" height="30" as="geometry" />
        </mxCell>
        <mxCell id="J3wNMaAdLXpvXrncayiv-32" style="edgeStyle=orthogonalEdgeStyle;rounded=0;orthogonalLoop=1;jettySize=auto;html=1;entryX=0.5;entryY=0;entryDx=0;entryDy=0;" edge="1" parent="1" source="J3wNMaAdLXpvXrncayiv-28" target="J3wNMaAdLXpvXrncayiv-16">
          <mxGeometry relative="1" as="geometry" />
        </mxCell>
        <mxCell id="J3wNMaAdLXpvXrncayiv-28" value="Node minikube" style="text;html=1;resizable=0;autosize=1;align=center;verticalAlign=middle;points=[];fillColor=#dae8fc;strokeColor=#6c8ebf;rounded=0;" vertex="1" parent="1">
          <mxGeometry x="372.5" y="190" width="100" height="30" as="geometry" />
        </mxCell>
        <mxCell id="J3wNMaAdLXpvXrncayiv-33" style="edgeStyle=orthogonalEdgeStyle;rounded=0;orthogonalLoop=1;jettySize=auto;html=1;exitX=0.5;exitY=1;exitDx=0;exitDy=0;exitPerimeter=0;" edge="1" parent="1" source="J3wNMaAdLXpvXrncayiv-29" target="J3wNMaAdLXpvXrncayiv-28">
          <mxGeometry relative="1" as="geometry" />
        </mxCell>
        <mxCell id="J3wNMaAdLXpvXrncayiv-29" value="" style="verticalLabelPosition=bottom;html=1;verticalAlign=top;align=center;strokeColor=none;fillColor=#00BEF2;shape=mxgraph.azure.computer;pointerEvents=1;" vertex="1" parent="1">
          <mxGeometry x="390" y="40" width="65" height="50" as="geometry" />
        </mxCell>
        <mxCell id="J3wNMaAdLXpvXrncayiv-34" value="vars" style="text;html=1;resizable=0;autosize=1;align=center;verticalAlign=middle;points=[];fillColor=none;strokeColor=none;rounded=0;" vertex="1" parent="1">
          <mxGeometry x="470" y="380" width="50" height="30" as="geometry" />
        </mxCell>
        <mxCell id="J3wNMaAdLXpvXrncayiv-18" value="" style="rhombus;whiteSpace=wrap;html=1;" vertex="1" parent="1">
          <mxGeometry x="160" y="230" width="110" height="100" as="geometry" />
        </mxCell>
        <mxCell id="J3wNMaAdLXpvXrncayiv-19" value="Ingress" style="text;html=1;resizable=0;autosize=1;align=center;verticalAlign=middle;points=[];fillColor=none;strokeColor=none;rounded=0;" vertex="1" parent="1">
          <mxGeometry x="185" y="265" width="60" height="30" as="geometry" />
        </mxCell>
        <mxCell id="J3wNMaAdLXpvXrncayiv-20" value="" style="rounded=1;whiteSpace=wrap;html=1;" vertex="1" parent="1">
          <mxGeometry x="85" y="220" width="90" height="27.5" as="geometry" />
        </mxCell>
        <mxCell id="J3wNMaAdLXpvXrncayiv-37" style="edgeStyle=orthogonalEdgeStyle;rounded=0;orthogonalLoop=1;jettySize=auto;html=1;entryX=0;entryY=0.5;entryDx=0;entryDy=0;" edge="1" parent="1" source="J3wNMaAdLXpvXrncayiv-21" target="J3wNMaAdLXpvXrncayiv-18">
          <mxGeometry relative="1" as="geometry" />
        </mxCell>
        <mxCell id="J3wNMaAdLXpvXrncayiv-21" value="TLS Secret" style="text;html=1;resizable=0;autosize=1;align=center;verticalAlign=middle;points=[];fillColor=none;strokeColor=none;rounded=0;" vertex="1" parent="1">
          <mxGeometry x="90" y="217.5" width="80" height="30" as="geometry" />
        </mxCell>
      </root>
    </mxGraphModel>
  </diagram>
</mxfile>
